<?xml version="1.0" encoding="utf-8"?>
<!-- Generator: Adobe Illustrator 22.1.0, SVG Export Plug-In . SVG Version: 6.00 Build 0)  -->
<svg version="1.1" id="Layer_1" xmlns="http://www.w3.org/2000/svg" xmlns:xlink="http://www.w3.org/1999/xlink" x="0px" y="0px"
	 viewBox="0 0 1132.7 764.8" style="enable-background:new 0 0 1132.7 764.8;" xml:space="preserve">
<style type="text/css">
	.st0{fill:#FEFEFE;}
	.st1{fill:#515D5D;}
	.st2{fill:#6FD2B0;}
	.st3{fill:#FDFDFD;}
	.st4{fill:#4B5655;}
	.st5{fill:#4B5554;}
	.st6{fill:#4A5554;}
	.st7{fill:#4D5756;}
</style>
<title>LinnearLogo</title>
<path class="st0" d="M18,450.5V233h322v217.5H18z M163.5,429.3l110.7-57.9c-0.5-0.3-0.8-0.6-1.1-0.8c-5.1-3.4-10.2-6.8-15.3-10.3
	c-0.9-0.6-1.6-0.7-2.6-0.2c-15.7,7.6-31.3,15.2-47,22.8c-6.5,3.1-13,6.3-19.5,9.5c-1.5,0.7-2.9-0.2-2.8-1.8c0-0.8,0.1-1.5,0.1-2.3
	c0.3-9.5,0.6-19.1,1-28.6l1.2-34.7c0.4-11.5,0.8-22.9,1.1-34.4c0.4-12.9,0.8-25.8,1.3-38.7c0-0.3,0-0.6,0-1.1L77.4,308.7
	c0.2,0.1,0.3,0.2,0.4,0.3c6.5,4.2,13.1,8.4,19.6,12.6c0.5,0.3,0.9,0.2,1.3,0c7.7-3.8,15.4-7.6,23.1-11.4c7.6-3.7,15.2-7.4,22.7-11.3
	c6.5-3.4,12.8-7.1,19.2-10.7c0.9-0.5,1.8-0.7,2.7-0.2c0.9,0.5,0.9,1.4,0.8,2.3c-0.3,10.6-0.6,21.2-0.8,31.7
	c-0.2,8.5-0.4,17-0.7,25.5c-0.4,13.8-0.7,27.5-1.1,41.3c-0.2,6-0.3,12.1-0.5,18.1C163.9,414.3,163.7,421.7,163.5,429.3L163.5,429.3z
	 M331.8,371.4L215,297.3c-0.5,9.5-0.9,18.8-1.4,28.1c0,0.7,0.3,1,0.8,1.3c16.7,11.2,33.4,22.4,50,33.6c4.7,3.2,9.4,6.3,14.2,9.5
	c1.5,1,1.4,2.6-0.2,3.5c-0.4,0.2-0.8,0.4-1.2,0.6l-57.2,29.9c-18.1,9.5-36.2,18.9-54.3,28.4c-0.2,0.1-0.5,0.3-0.8,0.5
	c0.4,0.3,0.7,0.5,1,0.7c7,4.6,14.1,9.1,21.1,13.7c0.5,0.4,1.2,0.4,1.7,0.1c12.4-6.6,24.8-13.2,37.2-19.7l93.9-49.7L331.8,371.4z
	 M22.2,312.5v1.2c0,9.5,0,18.9,0,28.4c-0.1,0.7,0.3,1.3,0.9,1.6c25.6,16.1,51.2,32.2,76.9,48.3c19.6,12.3,39.1,24.6,58.7,36.9
	c0.4,0.2,0.8,0.5,1.3,0.8c1.2-45.7,2.4-91.3,3.6-137c-0.4,0.2-0.7,0.3-1,0.5c-4.9,2.7-9.7,5.5-14.6,8.1c-1.8,0.9-2.5,2-2.6,4.1
	c-0.3,9.4-0.8,18.9-1.2,28.3c-0.3,6.2-0.5,12.4-0.8,18.6c-0.3,6.5-0.6,12.9-0.9,19.4c-0.2,4.6-0.4,9.3-0.6,13.9
	c-0.1,1.7-1.6,2.5-3,1.6c-0.3-0.2-0.6-0.4-0.9-0.6L98,360.8c-24.2-15.5-48.5-30.9-72.7-46.4C24.3,313.8,23.4,313.2,22.2,312.5z
	 M333.6,368.2v-1.1c0-9.1,0-18.1,0-27.2c0-0.6-0.3-1.2-0.8-1.4c-25.6-16.2-51.3-32.4-76.9-48.6c-20.2-12.8-40.4-25.5-60.6-38.3
	c-0.3-0.2-0.7-0.4-1.1-0.7c-1.5,45.7-3.1,91.2-4.6,136.8c0.2,0,0.3-0.1,0.4-0.1c5.5-2.7,11-5.3,16.5-8c0.3-0.2,0.6-0.7,0.6-1.1
	c0.4-6.9,0.7-13.9,1.1-20.8c0.6-11.9,1.2-23.8,1.8-35.7c0.5-9.3,0.9-18.6,1.4-27.8c0-1,0.8-1.8,1.8-1.8c0.3,0,0.7,0.1,1,0.3
	c0.4,0.2,0.9,0.6,1.3,0.8l111.6,70.7C329.2,365.5,331.3,366.8,333.6,368.2z M24.1,309.4l114.2,72.9c0.4-9.5,0.8-18.9,1.3-28.2
	c0-0.8-0.2-1.3-0.9-1.7c-14.3-9.2-28.7-18.4-43-27.6c-7.2-4.6-14.3-9.2-21.5-13.8c-2-1.3-1.8-3.8,0.3-4.8
	c16.7-8.6,33.4-17.1,50.1-25.7c21-10.8,42.1-21.5,63.1-32.3c0.3-0.2,0.6-0.3,1-0.6c-0.4-0.2-0.7-0.4-1-0.6
	c-6-3.4-12.1-6.9-18.1-10.4c-0.9-0.5-1.5-0.5-2.5-0.1c-18.2,9.3-36.4,18.6-54.6,27.8c-21.1,10.7-42.2,21.5-63.3,32.2L24.1,309.4z"/>
<path class="st1" d="M163.5,429.3c0.2-7.6,0.4-14.9,0.6-22.3c0.2-6,0.3-12.1,0.5-18.1c0.4-13.8,0.7-27.5,1.1-41.3
	c0.2-8.5,0.4-17,0.7-25.5c0.3-10.6,0.5-21.1,0.8-31.7c0-0.9,0.1-1.8-0.8-2.3c-0.9-0.5-1.8-0.3-2.7,0.2c-6.4,3.6-12.7,7.3-19.2,10.7
	c-7.5,3.9-15.1,7.6-22.7,11.3c-7.7,3.8-15.4,7.6-23.1,11.4c-0.4,0.2-0.8,0.4-1.3,0c-6.5-4.2-13.1-8.4-19.6-12.6
	c-0.1-0.1-0.2-0.2-0.4-0.3l113.1-57.9c0,0.5,0,0.8,0,1.1c-0.4,12.9-0.8,25.8-1.3,38.7c-0.4,11.5-0.8,22.9-1.1,34.4l-1.2,34.7
	c-0.3,9.5-0.6,19.1-1,28.6c0,0.8-0.1,1.5-0.1,2.3c-0.1,1.6,1.3,2.5,2.8,1.8c6.5-3.1,13-6.3,19.5-9.4c15.7-7.6,31.4-15.2,47-22.8
	c1-0.5,1.7-0.4,2.6,0.2c5.1,3.5,10.2,6.9,15.3,10.3c0.3,0.2,0.6,0.4,1.1,0.8L163.5,429.3z"/>
<path class="st2" d="M331.8,371.4l-12,6.4l-93.9,49.7c-12.4,6.6-24.8,13.1-37.2,19.7c-0.5,0.4-1.2,0.3-1.7-0.1
	c-7-4.6-14-9.2-21.1-13.7c-0.3-0.2-0.6-0.4-1-0.7c0.3-0.2,0.5-0.3,0.8-0.5c18.1-9.5,36.2-18.9,54.3-28.4l57.2-29.9
	c0.4-0.2,0.8-0.4,1.2-0.6c1.6-0.9,1.7-2.4,0.2-3.5c-4.7-3.2-9.4-6.3-14.2-9.5c-16.7-11.2-33.4-22.4-50-33.6
	c-0.5-0.3-0.8-0.6-0.8-1.3c0.5-9.3,0.9-18.6,1.4-28.1L331.8,371.4z"/>
<path class="st1" d="M22.2,312.5c1.1,0.7,2.1,1.3,3.1,2c24.2,15.5,48.5,30.9,72.7,46.4l39.9,25.4c0.3,0.2,0.6,0.4,0.9,0.6
	c1.4,0.9,2.9,0.1,3-1.6c0.2-4.6,0.4-9.2,0.6-13.9c0.3-6.5,0.6-12.9,0.9-19.4c0.3-6.2,0.5-12.4,0.8-18.6c0.4-9.4,0.9-18.9,1.2-28.3
	c0.1-2.1,0.8-3.1,2.6-4.1c4.9-2.6,9.7-5.4,14.6-8.1c0.3-0.2,0.6-0.3,1-0.5c-1.2,45.7-2.4,91.3-3.6,137c-0.5-0.3-0.9-0.5-1.3-0.8
	c-19.6-12.3-39.1-24.6-58.7-36.9c-25.6-16.1-51.2-32.2-76.9-48.3c-0.6-0.3-0.9-0.9-0.9-1.6c0-9.5,0-18.9,0-28.4V312.5z"/>
<path class="st1" d="M333.6,368.2c-2.3-1.4-4.4-2.8-6.5-4.1l-111.6-70.7c-0.4-0.3-0.9-0.6-1.3-0.8c-0.9-0.5-2-0.2-2.5,0.6
	c-0.2,0.3-0.3,0.6-0.3,1c-0.5,9.3-0.9,18.6-1.4,27.8c-0.6,11.9-1.2,23.8-1.8,35.7c-0.4,6.9-0.7,13.9-1.1,20.8c0,0.4-0.3,1-0.6,1.1
	c-5.5,2.7-11,5.4-16.5,8c-0.1,0.1-0.3,0.1-0.4,0.1c1.5-45.6,3-91.1,4.6-136.8c0.4,0.3,0.8,0.4,1.1,0.7
	c20.2,12.8,40.4,25.5,60.6,38.3c25.6,16.2,51.3,32.4,76.9,48.6c0.5,0.3,0.9,0.8,0.8,1.4c0,9.1,0,18.1,0,27.2L333.6,368.2z"/>
<path class="st2" d="M24.1,309.4l25-12.8c21.1-10.7,42.2-21.5,63.3-32.2c18.2-9.3,36.4-18.6,54.6-27.8c0.9-0.5,1.6-0.4,2.5,0.1
	c6,3.5,12.1,6.9,18.2,10.4c0.3,0.2,0.6,0.4,1,0.6c-0.4,0.2-0.7,0.4-1,0.6c-21,10.8-42.1,21.5-63.1,32.3
	c-16.7,8.5-33.4,17.1-50.1,25.7c-2.1,1.1-2.2,3.6-0.3,4.8c7.2,4.6,14.3,9.2,21.5,13.8c14.3,9.2,28.7,18.4,43,27.6
	c0.7,0.4,0.9,0.9,0.9,1.7c-0.4,9.3-0.9,18.6-1.3,28.2L24.1,309.4z"/>
<g id="UJzR8s_1_">
	<g>
		<g>
			<path class="st3" d="M351.7,467.3c0-70.2,0-140.4,0-210.5c235.4,0,470.9,0,706.3,0c0,70.2,0,140.4,0,210.5
				C822.6,467.3,587.2,467.3,351.7,467.3z M853.7,388.2c0.3,0.2,0.5,0.4,0.8,0.6c2.2,5.7,4.6,11.4,6.6,17.2c1,3,2.4,4.2,5.8,4.2
				c22.8-0.2,45.6-0.1,68.4-0.1c1.2,0,2.4-0.2,4.1-0.3c-20.2-42.7-40.1-84.8-60.5-128c-20.9,43.2-41.4,85.5-62.1,128.3
				c8.8,0,16.7,0.1,24.6-0.1c1.2,0,2.9-1.7,3.5-2.9C847.9,400.8,850.7,394.4,853.7,388.2z M562.3,282c0,24.2,0,47.8,0,72.3
				c-25.9-24.5-51-48.3-76.5-72.5c0,43.2,0,85.5,0,127.8c7.9,0,15.5,0,23.5,0c0-23.7,0-47.1,0-71.6c26,24.3,51.3,47.9,76.8,71.7
				c0-43.1,0-85.4,0-127.7C578.3,282,570.8,282,562.3,282z M622,409.9c0-23.9,0-47.3,0-71.9c26.1,24.3,51.2,47.9,76.9,71.8
				c0-43.1,0-85.3,0-127.7c-7.9,0-15.6,0-23.8,0c0,23.9,0,47.5,0,72.4c-26-24.6-51.1-48.4-76.6-72.6c0,43.1,0,85.5,0,128
				C606.2,409.9,613.6,409.9,622,409.9z M787.3,333.9c-18,0-35.5,0-52.9,0c0-9.9,0-19.4,0-29.1c23.1,0,45.8,0,69.5,0
				c-5.3-7-10.3-13.3-15-19.8c-1.7-2.4-3.5-3.2-6.4-3.2c-23,0.1-45.9,0.1-68.9,0.1c-1.2,0-2.5,0.2-3.7,0.3c0,42.7,0,85.2,0,127.6
				c31.8,0,63.2,0,94.8,0c0-7.1,0-13.9,0-21.2c-23.7,0-47,0-70.4,0c0-11.1,0-21.9,0-32.8c9,0,17.8,0,26.5,0c8.8,0,17.6,0,26.5,0
				C787.3,348.3,787.3,341.5,787.3,333.9z M1013.2,355.9c1.4-0.1,2.2-0.1,3-0.2c20.5-2.1,35.4-18.8,34.2-38.7
				c-0.9-15.2-13.1-35.8-37.8-35.2c-19.1,0.4-38.2,0.1-57.2,0.1c-3,0-6,0-10,0c5.6,6.8,10.7,12.8,15.6,19c2,2.5,4.1,3.5,7.3,3.5
				c15.7-0.2,31.4-0.1,47.1-0.1c6.7,0,11.2,3,12.8,9c3.4,12.8-2.5,21.4-15.1,21.4c-18.8,0-37.5,0-56.3,0c-1.7,0-3.5,0-5.2,0
				c0,25.4,0,50.2,0,75.1c8.1,0,16,0,24.3,0c0-18.2,0-36,0-54c1.9,0,3.4,0.2,4.8,0c5.5-0.9,8.6,1.5,11.6,6.1
				c9.9,15.1,20.4,29.9,30.8,44.7c1,1.4,2.7,3.4,4.1,3.4c7.3,0.3,14.7,0.2,23,0.2C1037.6,391.6,1025.5,374,1013.2,355.9z
				 M378.9,386.7c0-35.2,0-69.8,0-104.5c-8.4,0-16.2,0-24.1,0c0,42.7,0,85.1,0,127.6c28.3,0,56.4,0,85.1,0
				c-4-5.9-8.1-11.1-11.3-16.8c-2.9-5.1-6.6-6.8-12.4-6.5C404,387,391.7,386.7,378.9,386.7z M472.8,409.9c0-42.9,0-85.3,0-127.8
				c-8.3,0-16.3,0-24.3,0c0,42.7,0,85.2,0,127.8C456.8,409.9,464.6,409.9,472.8,409.9z"/>
			<path class="st4" d="M562.3,282c8.4,0,16,0,23.9,0c0,42.4,0,84.6,0,127.7c-25.5-23.9-50.8-47.4-76.8-71.7c0,24.5,0,47.9,0,71.6
				c-8,0-15.7,0-23.5,0c0-42.3,0-84.6,0-127.8c25.5,24.2,50.6,48,76.5,72.5C562.3,329.8,562.3,306.2,562.3,282z"/>
			<path class="st4" d="M622,409.9c-8.4,0-15.8,0-23.5,0c0-42.5,0-84.9,0-128c25.5,24.2,50.6,48,76.6,72.6c0-24.8,0-48.5,0-72.4
				c8.2,0,15.9,0,23.8,0c0,42.4,0,84.7,0,127.7c-25.6-24-50.8-47.5-76.9-71.8C622,362.6,622,386,622,409.9z"/>
			<path class="st5" d="M787.3,333.9c0,7.6,0,14.4,0,21.9c-8.9,0-17.7,0-26.5,0c-8.7,0-17.4,0-26.5,0c0,11,0,21.7,0,32.8
				c23.4,0,46.8,0,70.4,0c0,7.3,0,14.1,0,21.2c-31.6,0-63,0-94.8,0c0-42.5,0-84.9,0-127.6c1.2-0.1,2.4-0.3,3.7-0.3
				c23,0,45.9,0,68.9-0.1c2.9,0,4.7,0.9,6.4,3.2c4.7,6.5,9.6,12.8,15,19.8c-23.7,0-46.4,0-69.5,0c0,9.7,0,19.2,0,29.1
				C751.8,333.9,769.3,333.9,787.3,333.9z"/>
			<path class="st4" d="M1013.2,355.9c12.3,18.1,24.4,35.7,36.9,54.1c-8.3,0-15.7,0.2-23-0.2c-1.4-0.1-3.1-2-4.1-3.4
				c-10.4-14.8-20.9-29.6-30.8-44.7c-3-4.6-6.2-7-11.6-6.1c-1.4,0.2-2.9,0-4.8,0c0,18,0,35.9,0,54c-8.3,0-16.1,0-24.3,0
				c0-24.8,0-49.6,0-75.1c1.7,0,3.5,0,5.2,0c18.8,0,37.5,0,56.3,0c12.6,0,18.5-8.6,15.1-21.4c-1.6-6-6.2-8.9-12.8-9
				c-15.7,0-31.4-0.1-47.1,0.1c-3.3,0-5.4-1-7.3-3.5c-4.8-6.2-9.9-12.2-15.6-19c4,0,7,0,10,0c19.1,0,38.2,0.3,57.2-0.1
				c24.7-0.6,36.9,20.1,37.8,35.2c1.2,19.9-13.7,36.6-34.2,38.7C1015.4,355.8,1014.6,355.8,1013.2,355.9z"/>
			<path class="st4" d="M853.7,388.2c-2.9,6.3-5.7,12.6-8.9,18.8c-0.6,1.3-2.3,2.9-3.5,2.9c-7.9,0.3-15.8,0.1-24.6,0.1
				c20.7-42.8,41.2-85.1,62.1-128.3c20.4,43.2,40.3,85.3,60.5,128c-1.7,0.1-2.9,0.3-4.1,0.3c-22.8,0-45.6-0.1-68.4,0.1
				c-3.4,0-4.8-1.1-5.8-4.2c-2-5.8-4.4-11.4-6.6-17.2c15.5,0,30.9,0,47.4,0c-8-18.6-15.6-36.4-23.6-54.9
				C869.7,352.6,861.7,370.4,853.7,388.2z"/>
			<path class="st6" d="M378.9,386.7c12.8,0,25,0.3,37.2-0.1c5.8-0.2,9.5,1.4,12.4,6.5c3.2,5.7,7.3,10.9,11.3,16.8
				c-28.7,0-56.8,0-85.1,0c0-42.5,0-84.9,0-127.6c7.9,0,15.7,0,24.1,0C378.9,316.9,378.9,351.5,378.9,386.7z"/>
			<path class="st7" d="M472.8,409.9c-8.2,0-16.1,0-24.3,0c0-42.5,0-85,0-127.8c8.1,0,16.1,0,24.3,0
				C472.8,324.6,472.8,367,472.8,409.9z"/>
			<path class="st3" d="M853.7,388.2c8-17.8,16.1-35.5,24.6-54.3c8,18.6,15.6,36.3,23.6,54.9c-16.5,0-31.9,0-47.4,0
				C854.2,388.6,853.9,388.4,853.7,388.2z"/>
		</g>
	</g>
</g>
</svg>
